<?xml version="1.0" encoding="utf-8"?>
<!-- Generator: Adobe Illustrator 16.0.0, SVG Export Plug-In . SVG Version: 6.00 Build 0)  -->
<!DOCTYPE svg PUBLIC "-//W3C//DTD SVG 1.1//EN" "http://www.w3.org/Graphics/SVG/1.1/DTD/svg11.dtd">
<svg version="1.1" id="Layer_1" xmlns="http://www.w3.org/2000/svg" xmlns:xlink="http://www.w3.org/1999/xlink" x="0px" y="0px"
	 width="35.625px" height="35.75px" viewBox="0 0 35.625 35.75" enable-background="new 0 0 35.625 35.75" xml:space="preserve">
<path fill="#517CBE" d="M17.812,34.883c9.393,0,17.008-7.614,17.008-17.008c0-9.393-7.615-17.008-17.008-17.008
	c-9.394,0-17.008,7.615-17.008,17.008C0.805,27.269,8.419,34.883,17.812,34.883"/>
<path fill="#FFFFFF" d="M13.709,14.995h1.759v-1.709c0-0.753,0.019-1.915,0.566-2.635c0.576-0.763,1.368-1.28,2.729-1.28
	c2.218,0,3.152,0.316,3.152,0.316l-0.439,2.604c0,0-0.733-0.212-1.417-0.212s-1.296,0.245-1.296,0.929v1.986h2.804l-0.195,2.545
	h-2.608v8.839h-3.296V17.54h-1.759V14.995z"/>
</svg>
