<?xml version="1.0" encoding="utf-8"?>
<!-- Generator: Adobe Illustrator 16.0.0, SVG Export Plug-In . SVG Version: 6.00 Build 0)  -->
<!DOCTYPE svg PUBLIC "-//W3C//DTD SVG 1.1//EN" "http://www.w3.org/Graphics/SVG/1.1/DTD/svg11.dtd">
<svg version="1.1" id="Layer_1" xmlns="http://www.w3.org/2000/svg" xmlns:xlink="http://www.w3.org/1999/xlink" x="0px" y="0px"
	 width="35.625px" height="35.75px" viewBox="0 0 35.625 35.75" enable-background="new 0 0 35.625 35.75" xml:space="preserve">
<path fill="#5F6364" d="M17.812,34.883c9.394,0,17.008-7.615,17.008-17.008c0-9.393-7.614-17.007-17.008-17.007
	c-9.395,0-17.008,7.615-17.008,17.007C0.805,27.268,8.418,34.883,17.812,34.883"/>
<path fill="#FFFFFF" d="M23.029,9.371H12.596c-1.812,0-3.287,1.474-3.287,3.287v3.472v6.963c0,1.812,1.475,3.287,3.287,3.287h10.434
	c1.812,0,3.287-1.474,3.287-3.287v-6.963v-3.472C26.316,10.845,24.842,9.371,23.029,9.371z M23.973,11.332l0.376-0.001v0.375v2.508
	l-2.874,0.009l-0.01-2.883L23.973,11.332z M15.386,16.129c0.544-0.754,1.428-1.248,2.427-1.248s1.883,0.494,2.427,1.248
	c0.355,0.492,0.567,1.094,0.567,1.746c0,1.65-1.344,2.993-2.994,2.993s-2.993-1.343-2.993-2.993
	C14.819,17.223,15.031,16.622,15.386,16.129z M24.659,23.092c0,0.899-0.73,1.629-1.63,1.629H12.596c-0.899,0-1.63-0.73-1.63-1.629
	v-6.963h2.539c-0.22,0.54-0.343,1.128-0.343,1.746c0,2.564,2.086,4.651,4.65,4.651s4.65-2.087,4.65-4.651
	c0-0.617-0.124-1.206-0.343-1.746h2.539V23.092z"/>
</svg>
