<?xml version="1.0" encoding="utf-8"?>
<!-- Generator: Adobe Illustrator 16.0.0, SVG Export Plug-In . SVG Version: 6.00 Build 0)  -->
<!DOCTYPE svg PUBLIC "-//W3C//DTD SVG 1.1//EN" "http://www.w3.org/Graphics/SVG/1.1/DTD/svg11.dtd">
<svg version="1.1" id="Layer_1" xmlns="http://www.w3.org/2000/svg" xmlns:xlink="http://www.w3.org/1999/xlink" x="0px" y="0px"
	 width="35.625px" height="35.75px" viewBox="0 0 35.625 35.75" enable-background="new 0 0 35.625 35.75" xml:space="preserve">
<path fill="#65CCEF" d="M17.812,34.883c9.394,0,17.008-7.614,17.008-17.008c0-9.393-7.614-17.008-17.008-17.008
	S0.805,8.482,0.805,17.875C0.805,27.269,8.419,34.883,17.812,34.883"/>
<path fill="#FFFFFF" d="M26.331,12.591c-0.626,0.278-1.301,0.466-2.007,0.55c0.722-0.433,1.276-1.117,1.537-1.933
	c-0.676,0.4-1.423,0.691-2.22,0.847c-0.636-0.679-1.545-1.104-2.551-1.104c-1.929,0-3.494,1.565-3.494,3.495
	c0,0.274,0.03,0.541,0.09,0.796c-2.905-0.146-5.479-1.536-7.205-3.652c-0.301,0.518-0.473,1.118-0.473,1.759
	c0,1.211,0.617,2.282,1.555,2.909c-0.573-0.018-1.112-0.176-1.584-0.437v0.043c0,1.694,1.205,3.107,2.805,3.427
	c-0.293,0.082-0.602,0.123-0.921,0.123c-0.225,0-0.445-0.021-0.657-0.062c0.444,1.388,1.735,2.399,3.265,2.426
	c-1.196,0.938-2.704,1.497-4.341,1.497c-0.282,0-0.561-0.016-0.834-0.048c1.547,0.991,3.384,1.57,5.358,1.57
	c6.43,0,9.945-5.325,9.945-9.945c0-0.152-0.003-0.303-0.009-0.452C25.271,13.908,25.864,13.292,26.331,12.591"/>
</svg>
