<?xml version="1.0" encoding="utf-8"?>
<!-- Generator: Adobe Illustrator 16.0.0, SVG Export Plug-In . SVG Version: 6.00 Build 0)  -->
<!DOCTYPE svg PUBLIC "-//W3C//DTD SVG 1.1//EN" "http://www.w3.org/Graphics/SVG/1.1/DTD/svg11.dtd">
<svg version="1.1" id="Layer_1" xmlns="http://www.w3.org/2000/svg" xmlns:xlink="http://www.w3.org/1999/xlink" x="0px" y="0px"
	 width="35.625px" height="35.75px" viewBox="0 0 35.625 35.75" enable-background="new 0 0 35.625 35.75" xml:space="preserve">
<path fill="#ED6C53" d="M17.812,34.883c9.394,0,17.009-7.615,17.009-17.008c0-9.393-7.615-17.007-17.009-17.007
	S0.804,8.482,0.804,17.875C0.804,27.268,8.418,34.883,17.812,34.883"/>
<path fill="#FFFFFF" d="M21.114,17.884l-5.568,3.271v-6.542L21.114,17.884z M26.316,20.916v-6.081c0,0,0-2.932-2.932-2.932H12.238
	c0,0-2.93,0-2.93,2.932v6.081c0,0,0,2.931,2.93,2.931h11.146C23.385,23.847,26.316,23.847,26.316,20.916"/>
</svg>
